<?xml version="1.0" encoding="utf-8"?>
<!-- Generator: Adobe Illustrator 27.2.0, SVG Export Plug-In . SVG Version: 6.00 Build 0)  -->
<svg version="1.1" id="Layer_1" xmlns="http://www.w3.org/2000/svg" xmlns:xlink="http://www.w3.org/1999/xlink" x="0px" y="0px"
	 viewBox="0 0 725.25 782.59" style="enable-background:new 0 0 725.25 782.59;" xml:space="preserve">
<style type="text/css">
	.st0{fill:#FFFFFF;}
	.st1{display:none;fill:#94569E;}
	.st2{display:none;fill:#1D1D1B;stroke:#1D1D1B;stroke-miterlimit:10;}
	.st3{fill:#4D1359;}
	.st4{fill:none;stroke:#AF6ABF;stroke-miterlimit:10;}
	.st5{fill:#5E2877;}
	.st6{fill:#492258;}
	.st7{fill:#8131AA;}
	.st8{fill:#933CC6;}
	.st9{fill:#B744D3;}
	.st10{fill:#A036BA;}
	.st11{fill:#D760F4;}
	.st12{fill:#B744D3;stroke:#FCFCFC;stroke-miterlimit:10;}
	.st13{fill:#A036BA;stroke:#FCFCFC;stroke-miterlimit:10;}
	.st14{fill:#D760F4;stroke:#FCFCFC;stroke-miterlimit:10;}
	.st15{fill:#5E2877;stroke:#FCFCFC;stroke-miterlimit:10;}
	.st16{fill:#492258;stroke:#FCFCFC;stroke-miterlimit:10;}
	.st17{fill:#4D1359;stroke:#FCFCFC;stroke-miterlimit:10;}
	.st18{fill:#8131AA;stroke:#FCFCFC;stroke-miterlimit:10;}
	.st19{fill:#933CC6;stroke:#FCFCFC;stroke-miterlimit:10;}
</style>
<rect class="st0" width="722.76" height="782.59"/>
<g>
	<polygon class="st5" points="574.59,517.07 654.07,422.62 709.96,496.72 	"/>
	<polygon class="st6" points="495.6,414.72 588.22,417.72 556.45,537.01 	"/>
	<polygon class="st3" points="587.05,390.02 525.52,279.47 496.77,410.96 	"/>
	<polygon class="st7" points="587.05,390.02 677.52,410.74 648.57,279.47 	"/>
	<polygon class="st8" points="525.52,279.47 587.05,390.02 648.57,279.47 	"/>
	<polygon class="st9" points="648.57,279.47 551.16,163.01 622.93,163.01 	"/>
	<polygon class="st10" points="525.52,279.47 648.57,279.47 551.16,163.01 	"/>
	<polygon class="st11" points="551.16,163.01 622.93,163.01 587.05,0 	"/>
	<polygon class="st5" points="570.9,759.86 617.89,645.71 693.67,699.31 	"/>
	<polygon class="st6" points="439.65,680.08 529.93,659.14 529.93,782.59 	"/>
	<polygon class="st3" points="361.9,637.75 271.97,726.75 406.35,719.07 	"/>
	<polygon class="st7" points="632.28,617.04 722.76,637.75 693.81,506.48 	"/>
	<polygon class="st8" points="394.06,522.75 495.7,598.1 506.16,472.01 	"/>
	<polygon class="st9" points="227.43,682.25 130.02,565.79 201.79,565.79 	"/>
	<polygon class="st10" points="257.92,608.98 379.99,593.49 268.7,490.22 	"/>
	<polygon class="st11" points="165.94,738.46 158.16,667.11 0,720.44 	"/>
</g>
</svg>
